Patient4_TMGait_0pt8_01_right_01_EMG.mot
version=1
nRows=13
nColumns=33
inDegrees=no
endheader
time	1LAddLong	2LGlutMax	3LGlutMed	4LIliopsoas	5LSemiMemb	6LBicFemLong	7LRecFem	8LVastMed	9LVastLat	10LGasMed	11LTibAnt	12lTibPost	13LPeroneusLong	14LSol	15LExtDigLong	16LFlexDigLong	17RAddLong	18RGlutMax	19RGlutMed	20RIliopsoas	21RSemiMemb	22RBicFemLong	23RRecFem	24RVastMed	25RVastLat	26RGasMed	27RTibAnt	28RTibPost	29RPeroneusLong	30RSol	31RExtDigLong	32RFlexDigLong
1.142	-0.018463	-0.3566	-0.17792	-0.009155	0.041962	-0.027313	0.43259	-0.002289	0.20096	-0.007019	-0.018768	-0.002899	-0.062103	0.11108	0.023499	0.032043	0.11398	-0.16892	-0.66299	0.071411	-0.36407	0.031128	-0.33844	-0.19257	-0.040588	0.000916	-0.004883	-0.076599	-0.45212	-0.18036	-0.001068	-0.014954
1.143	-0.010681	-0.35416	-0.17899	-0.008087	0.041962	-0.01358	0.40466	0.002594	0.19867	-0.00824	0.039063	-0.001068	-0.075378	0.091705	-0.033417	0.02182	0.068359	-0.14099	-0.13565	-0.0737	-0.12756	0.40802	-0.55817	-0.44235	0.7164	-0.020599	-0.027466	0.033569	-0.81619	0.34149	-0.002747	-0.015106
1.144	-0.008392	-0.36392	-0.17212	-0.028381	0.037537	-0.012817	0.35584	-0.010223	0.19104	0.014801	0.072784	0.003052	-0.070953	0.077515	-0.10773	0.021362	-0.052185	-0.19684	0.70145	-0.1178	-0.30228	0.5365	-0.39825	-0.30289	0.70892	-0.028839	0.084991	0.035706	-0.79239	0.2713	-0.002594	-0.019989
1.145	-0.006866	-0.38818	-0.19348	-0.02182	0.036011	-0.010071	0.31418	0.000458	0.18036	0.021973	0.047302	0.004883	-0.078278	0.023346	-0.074768	0.018768	-0.1294	-0.19104	1.0707	-0.10407	0.036926	0.36148	-0.36499	0.2832	0.42389	-0.031586	0.10056	0.021667	0.29999	0.077667	-0.00824	-0.020447
1.146	-0.004578	-0.34241	-0.20737	0.002289	0.046387	-0.02121	0.31021	-0.003357	0.1889	0.020142	0.034943	0.008087	-0.058136	0.033417	0.011139	0.13153	-0.085602	-0.35553	0.027008	-0.18326	-0.24475	0.30395	-0.28061	0.42343	0.11017	-0.009766	0.13779	0.009155	1.6594	-0.09491	-0.008545	-0.012512
1.147	-0.001678	-0.31204	-0.21957	0.027924	0.039215	-0.02594	0.25559	-0.001526	0.15854	0.004883	-0.052032	0.005493	-0.018311	0.043488	0.049133	0.015869	0.00061	-0.44067	-0.32928	-0.2179	-0.1329	0.16419	-0.23666	0.12711	-0.27802	-0.007629	0.22034	-0.001373	0.24262	-0.001068	-0.001831	-0.023346
1.148	-0.005341	-0.32928	-0.24933	0.03067	0.029144	-0.02533	0.1915	-0.007782	0.15457	-0.036926	-0.04303	0.003815	0.02655	0.08667	0.071716	-0.28458	0.066071	-0.3865	-0.34729	-0.13672	0.26138	-0.029297	-0.28366	-0.097504	-0.70648	0.000305	0.16541	0.002747	0.59418	0.19424	-0.003662	-0.014496
1.149	-0.003357	-0.35736	-0.26764	0.010681	0.028992	-0.033875	0.10925	-0.00351	0.13825	-0.025024	-0.030212	0.010376	0.03952	0.14755	0.003662	0.27695	0.070953	-0.3978	-0.16495	0.021973	-0.037842	-0.036926	-0.10071	-0.20935	-1.1365	0.005646	0.19089	0.023956	1.131	0.29999	0.000305	-0.00946
1.15	-0.002441	-0.42831	-0.30563	0.015564	0.028534	-0.0177	0.13092	0.00473	0.13489	0.015259	0.013123	0.007782	-0.047607	0.17029	0.009155	0.16632	0.027008	-0.36301	-0.052185	0.15976	-0.51224	0.12039	-0.15656	-0.31326	-0.80124	0.020142	0.014191	0.023804	1.2752	0.29572	-0.005341	0.004272
1.151	0.00061	-0.44876	-0.32944	0.017395	0.030975	-0.020142	0.16235	0.003662	0.12848	0.015411	0.022125	0.011444	-0.079803	0.18158	0.18692	0.075226	-0.052643	-0.37277	-0.29831	0.30365	-0.50873	0.30395	-0.23438	-0.57968	-0.40115	0.041656	-0.060425	-0.024872	-1.9908	-0.15152	-0.002441	0.002289
1.152	-0.003815	-0.47455	-0.31906	0.023499	0.069275	-0.018158	0.28915	0.001984	0.12528	0.010071	-0.051117	0.014801	-0.076752	0.1178	0.067749	0.045776	-0.10819	-0.42725	-0.005341	0.21378	-0.22385	0.2829	-0.21469	-0.42725	-0.14435	0.03891	-0.12741	-0.2034	-2.5504	-0.5838	-0.001831	0.004425
1.153	-0.006256	-0.38284	-0.31189	0.018921	-0.001526	-0.001373	0.28244	0.00061	0.1355	0.025482	-0.086823	0.006866	-0.038757	0.094147	0.4126	-0.005188	-0.084381	-0.29343	0.47226	-0.064392	0.38086	0.13321	-0.18097	-0.22736	-0.028992	0.019226	0.093689	-0.354	-2.4953	-0.36713	-0.009613	0.007629
1.154	-0.009918	-0.37781	-0.30579	0.002441	0.026245	-0.010376	0.29709	0.003204	0.13519	0.039063	-0.18784	0.01297	-0.048828	-0.059662	-0.00351	-0.029602	-0.035553	-0.25345	0.69565	-0.19257	0.44174	0.005951	-0.041656	-0.052185	-0.048218	-0.009613	0.15045	-0.13626	1.7744	-0.12985	-0.00061	-0.011292
